# xmcd
#
# Track frame offsets:
# 150
# 13800
# 27429
# 45997
# 54437
# 67691
# 81141
# 94893
# 108436
# 121667
# 135391
# 148625
# 162280
# 175622
# 189087
# 202717
# 216125
# 229736
# 243158
# 256737
# 273323
# 283332
# 297287
# 310837
# 324204
# 337617
#
# Disc length: 4607 seconds
#
#
# Revision: 0
# Processed by: cddbd v1.5.2PL0 Copyright (c) Steve Scherf et al.
# Submitted via: FreeRIP 2.945 
#
DISCID=5411fd1a
DTITLE=Murphy-P2001 - Wild-Angel3
DYEAR=2001
DGENRE=Jungle
TTITLE0=WA 301
TTITLE1=WA 302
TTITLE2=WA 303
TTITLE3=WA 304
TTITLE4=WA 305
TTITLE5=WA 306
TTITLE6=WA 307
TTITLE7=WA 308
TTITLE8=WA 309
TTITLE9=WA 310
TTITLE10=WA 311
TTITLE11=WA 312
TTITLE12=WA 313
TTITLE13=WA 314
TTITLE14=WA 315
TTITLE15=WA 316
TTITLE16=WA 317
TTITLE17=WA 318
TTITLE18=WA 319
TTITLE19=WA 320
TTITLE20=WA 321
TTITLE21=WA 322
TTITLE22=WA 323
TTITLE23=WA 324
TTITLE24=WA 325
TTITLE25=WA 326
EXTD=Wild Angel by Pat (Patrice) Murphy 9 CDs\nread by Bernadette Dunne Blackstone Audio\njungle country
EXTT0=
EXTT1=
EXTT2=
EXTT3=
EXTT4=
EXTT5=
EXTT6=
EXTT7=
EXTT8=
EXTT9=
EXTT10=
EXTT11=
EXTT12=
EXTT13=
EXTT14=
EXTT15=
EXTT16=
EXTT17=
EXTT18=
EXTT19=
EXTT20=
EXTT21=
EXTT22=
EXTT23=
EXTT24=
EXTT25=
PLAYORDER=
